<svg aria-hidden="true" style="position: absolute; width: 0; height: 0; overflow: hidden;" version="1.1" xmlns="http://www.w3.org/2000/svg" xmlns:xlink="http://www.w3.org/1999/xlink">
<defs>
<symbol id="icon-Ellipse" viewBox="0 0 32 32">
<path fill="#4d5ae5" style="fill: var(--color1, #4d5ae5)" d="M32 16c0 4.418-1.791 8.418-4.686 11.314s-6.895 4.686-11.314 4.686c-4.418 0-8.418-1.791-11.314-4.686s-4.686-6.895-4.686-11.314c0-4.418 1.791-8.418 4.686-11.314s6.895-4.686 11.314-4.686c4.418 0 8.418 1.791 11.314 4.686s4.686 6.895 4.686 11.314z"></path>
<path fill="#f4f4fd" style="fill: var(--color2, #f4f4fd)" d="M22.4 12.031c-0.476 0.209-0.983 0.347-1.512 0.414 0.544-0.325 0.959-0.835 1.154-1.45-0.507 0.302-1.067 0.516-1.664 0.635-0.482-0.513-1.168-0.83-1.917-0.83-1.453 0-2.622 1.179-2.622 2.625 0 0.208 0.018 0.408 0.061 0.598-2.182-0.106-4.112-1.152-5.409-2.745-0.226 0.393-0.359 0.842-0.359 1.326 0 0.909 0.468 1.714 1.166 2.181-0.422-0.008-0.835-0.13-1.186-0.323 0 0.008 0 0.018 0 0.029 0 1.275 0.91 2.334 2.102 2.578-0.214 0.058-0.446 0.086-0.688 0.086-0.168 0-0.338-0.010-0.497-0.045 0.34 1.039 1.305 1.803 2.452 1.828-0.893 0.698-2.026 1.119-3.254 1.119-0.215 0-0.422-0.010-0.628-0.036 1.162 0.75 2.54 1.178 4.026 1.178 4.829 0 7.469-4 7.469-7.467 0-0.116-0.004-0.228-0.010-0.339 0.521-0.37 0.958-0.831 1.315-1.362z"></path>
</symbol>
<symbol id="icon-facebook" viewBox="0 0 32 32">
<path fill="#f4f4fd" style="fill: var(--color2, #f4f4fd)" d="M21.329 5.313h2.921v-5.088c-0.504-0.069-2.237-0.225-4.256-0.225-4.212 0-7.097 2.649-7.097 7.519v4.481h-4.648v5.688h4.648v14.312h5.699v-14.311h4.46l0.708-5.688h-5.169v-3.919c0.001-1.644 0.444-2.769 2.735-2.769v0z"></path>
</symbol>
<symbol id="icon-instagram" viewBox="0 0 32 32">
<path fill="#f4f4fd" style="fill: var(--color2, #f4f4fd)" d="M31.969 9.408c-0.075-1.7-0.35-2.869-0.744-3.882-0.406-1.075-1.031-2.038-1.85-2.838-0.8-0.813-1.769-1.444-2.832-1.844-1.019-0.394-2.182-0.669-3.882-0.744-1.713-0.081-2.257-0.1-6.601-0.1s-4.888 0.019-6.595 0.094c-1.7 0.075-2.869 0.35-3.882 0.744-1.075 0.406-2.038 1.031-2.838 1.85-0.813 0.8-1.444 1.769-1.844 2.832-0.394 1.019-0.669 2.182-0.744 3.882-0.081 1.713-0.1 2.257-0.1 6.601s0.019 4.888 0.094 6.595c0.075 1.7 0.35 2.869 0.744 3.882 0.406 1.075 1.038 2.038 1.85 2.838 0.8 0.813 1.769 1.444 2.832 1.844 1.019 0.394 2.182 0.669 3.882 0.744 1.706 0.075 2.25 0.094 6.595 0.094s4.888-0.018 6.595-0.094c1.7-0.075 2.869-0.35 3.882-0.744 2.151-0.831 3.851-2.532 4.682-4.682 0.394-1.019 0.669-2.182 0.744-3.882 0.075-1.707 0.094-2.251 0.094-6.595s-0.006-4.888-0.081-6.595zM29.087 22.473c-0.069 1.563-0.331 2.407-0.55 2.969-0.538 1.394-1.644 2.501-3.038 3.038-0.563 0.219-1.413 0.481-2.969 0.55-1.688 0.075-2.194 0.094-6.464 0.094s-4.782-0.018-6.464-0.094c-1.563-0.069-2.407-0.331-2.969-0.55-0.694-0.256-1.325-0.663-1.838-1.194-0.531-0.519-0.938-1.144-1.194-1.838-0.219-0.563-0.481-1.413-0.55-2.969-0.075-1.688-0.094-2.194-0.094-6.464s0.019-4.782 0.094-6.464c0.069-1.563 0.331-2.407 0.55-2.969 0.256-0.694 0.663-1.325 1.2-1.838 0.519-0.531 1.144-0.938 1.838-1.194 0.563-0.219 1.413-0.481 2.969-0.55 1.688-0.075 2.194-0.094 6.464-0.094 4.276 0 4.782 0.019 6.464 0.094 1.563 0.069 2.407 0.331 2.969 0.55 0.694 0.256 1.325 0.662 1.838 1.194 0.531 0.519 0.938 1.144 1.194 1.838 0.219 0.563 0.481 1.413 0.55 2.969 0.075 1.688 0.094 2.194 0.094 6.464s-0.019 4.77-0.094 6.457z"></path>
<path fill="#f4f4fd" style="fill: var(--color2, #f4f4fd)" d="M16.059 7.782c-4.538 0-8.22 3.682-8.22 8.22s3.682 8.22 8.22 8.22c4.538 0 8.22-3.682 8.22-8.22s-3.682-8.22-8.22-8.22zM16.059 21.335c-2.944 0-5.332-2.388-5.332-5.332s2.388-5.332 5.332-5.332c2.944 0 5.332 2.388 5.332 5.332s-2.388 5.332-5.332 5.332v0z"></path>
<path fill="#f4f4fd" style="fill: var(--color2, #f4f4fd)" d="M26.524 7.457c0 1.060-0.859 1.919-1.919 1.919s-1.919-0.859-1.919-1.919c0-1.060 0.859-1.919 1.919-1.919s1.919 0.859 1.919 1.919v0z"></path>
</symbol>
<symbol id="icon-linkedin" viewBox="0 0 32 32">
<path fill="#f4f4fd" style="fill: var(--color2, #f4f4fd)" d="M31.992 32v-0.001h0.008v-11.736c0-5.741-1.236-10.164-7.948-10.164-3.227 0-5.392 1.771-6.276 3.449h-0.093v-2.913h-6.364v21.364h6.627v-10.579c0-2.785 0.528-5.479 3.977-5.479 3.399 0 3.449 3.179 3.449 5.657v10.401h6.62z"></path>
<path fill="#f4f4fd" style="fill: var(--color2, #f4f4fd)" d="M0.528 10.636h6.635v21.364h-6.635v-21.364z"></path>
<path fill="#f4f4fd" style="fill: var(--color2, #f4f4fd)" d="M3.843-0c-2.121 0-3.843 1.721-3.843 3.843s1.721 3.879 3.843 3.879c2.121 0 3.843-1.757 3.843-3.879-0.001-2.121-1.723-3.843-3.843-3.843v0z"></path>
</symbol>
<symbol id="icon-home" viewBox="0 0 32 32">
<path d="M32 18.451l-16-12.42-16 12.42v-5.064l16-12.42 16 12.42zM28 18v12h-8v-8h-8v8h-8v-12l12-9z"></path>
</symbol>
</defs>
</svg>
